<?xml version="1.0" encoding="UTF-8" standalone="no"?>
<svg
   xmlns:dc="http://purl.org/dc/elements/1.1/"
   xmlns:cc="http://creativecommons.org/ns#"
   xmlns:rdf="http://www.w3.org/1999/02/22-rdf-syntax-ns#"
   xmlns:svg="http://www.w3.org/2000/svg"
   xmlns="http://www.w3.org/2000/svg"
   viewBox="0 0 1333.3333 1066.6667"
   height="1066.6667"
   width="1333.3333"
   xml:space="preserve"
   id="svg2"
   version="1.1"><metadata
     id="metadata8"><rdf:RDF><cc:Work
         rdf:about=""><dc:format>image/svg+xml</dc:format><dc:type
           rdf:resource="http://purl.org/dc/dcmitype/StillImage" /></cc:Work></rdf:RDF></metadata><defs
     id="defs6"><clipPath
       id="clipPath20"
       clipPathUnits="userSpaceOnUse"><path
         id="path18"
         d="m 5000,4274.27 c 0,0 -1.15,1.19 -2.79,2.9 1.64,1.71 2.79,2.89 2.79,2.89 0,0 1.15,-1.18 2.79,-2.89 -1.64,-1.71 -2.79,-2.9 -2.79,-2.9 z m 1219.14,1030.85 c -156.58,-58.79 -409.07,-263.13 -643.84,-474.46 -82.48,-74.25 -162.77,-149.39 -235.89,-219.42 l -291.85,-291.86 237.5,367.65 C 5116.42,4923.44 5000,5098.2 5000,5098.2 c 0,0 -265.29,-398.34 -575.29,-805.93 -72.98,-95.92 -148.41,-192.42 -223.54,-284.3 -195.38,-239.2 -388.1,-447.67 -527.44,-535.61 -280.16,-176.96 -1328.55,-223.15 -1328.55,-223.15 0,0 1114.17,-120.83 1435.68,0 156.58,58.79 409.08,263.13 643.85,474.46 72.23,65.03 142.78,130.74 208.31,193.1 l -83.07,189.87 186.1,-268.99 c 157.16,-221.2 263.95,-381.52 263.95,-381.52 0,0 265.29,398.34 575.3,805.93 72.98,95.92 148.41,192.42 223.54,284.3 195.37,239.2 388.1,447.67 527.44,535.61 280.17,176.96 1328.54,223.15 1328.54,223.15 0,0 -1114.15,120.83 -1435.68,0 z" /></clipPath><radialGradient
       id="radialGradient26"
       spreadMethod="pad"
       gradientTransform="matrix(-2680,-2550,-2550,2680,5410,5210)"
       gradientUnits="userSpaceOnUse"
       r="1"
       cy="0"
       cx="0"
       fy="0"
       fx="0"><stop
         id="stop22"
         offset="0"
         style="stop-opacity:1;stop-color:#51ade5" /><stop
         id="stop24"
         offset="1"
         style="stop-opacity:1;stop-color:#2c3892" /></radialGradient><clipPath
       id="clipPath38"
       clipPathUnits="userSpaceOnUse"><path
         id="path36"
         d="m 3327.66,2641.18 h 3344.68 v 554.332 H 3327.66 Z" /></clipPath><clipPath
       id="clipPath48"
       clipPathUnits="userSpaceOnUse"><path
         id="path46"
         d="m 5000,2641.18 v 0 c -923.61,0 -1672.34,124.09 -1672.34,277.17 0,153.07 748.73,277.16 1672.34,277.16 v 0 c 922.76,0 1670.97,-123.87 1672.34,-276.75 v -0.83 C 6670.97,2765.05 5922.76,2641.18 5000,2641.18 v 0" /></clipPath><radialGradient
       id="radialGradient54"
       spreadMethod="pad"
       gradientTransform="matrix(1374.59,0,0,-243.995,5000,2918.35)"
       gradientUnits="userSpaceOnUse"
       r="1"
       cy="0"
       cx="0"
       fy="0"
       fx="0"><stop
         id="stop50"
         offset="0"
         style="stop-opacity:1;stop-color:#a7a5a6" /><stop
         id="stop52"
         offset="1"
         style="stop-opacity:1;stop-color:#ffffff" /></radialGradient></defs><g
     transform="matrix(1.3333333,0,0,-1.3333333,0,1066.6667)"
     id="g10"><g
       transform="scale(0.1)"
       id="g12"><g
         id="g14"><g
           clip-path="url(#clipPath20)"
           id="g16"><path
             id="path28"
             style="fill:url(#radialGradient26);fill-opacity:1;fill-rule:nonzero;stroke:none"
             d="m 5000,4274.27 c 0,0 -1.15,1.19 -2.79,2.9 1.64,1.71 2.79,2.89 2.79,2.89 0,0 1.15,-1.18 2.79,-2.89 -1.64,-1.71 -2.79,-2.9 -2.79,-2.9 z m 1219.14,1030.85 c -156.58,-58.79 -409.07,-263.13 -643.84,-474.46 -82.48,-74.25 -162.77,-149.39 -235.89,-219.42 l -291.85,-291.86 237.5,367.65 C 5116.42,4923.44 5000,5098.2 5000,5098.2 c 0,0 -265.29,-398.34 -575.29,-805.93 -72.98,-95.92 -148.41,-192.42 -223.54,-284.3 -195.38,-239.2 -388.1,-447.67 -527.44,-535.61 -280.16,-176.96 -1328.55,-223.15 -1328.55,-223.15 0,0 1114.17,-120.83 1435.68,0 156.58,58.79 409.08,263.13 643.85,474.46 72.23,65.03 142.78,130.74 208.31,193.1 l -83.07,189.87 186.1,-268.99 c 157.16,-221.2 263.95,-381.52 263.95,-381.52 0,0 265.29,398.34 575.3,805.93 72.98,95.92 148.41,192.42 223.54,284.3 195.37,239.2 388.1,447.67 527.44,535.61 280.17,176.96 1328.54,223.15 1328.54,223.15 0,0 -1114.15,120.83 -1435.68,0" /></g></g><path
         id="path30"
         style="fill:#ffffff;fill-opacity:1;fill-rule:nonzero;stroke:none"
         d="m 5000,2641.18 c -3.61,0 -7.27,0 -10.87,0 H 5000 v 0 0 h 10.88 c -3.61,0 -7.27,0 -10.88,0 m 1672.34,276.75 v 0 0.83 c 0,-0.14 0,-0.28 0,-0.42 0,-0.14 0,-0.27 0,-0.41" /><g
         id="g32"><g
           clip-path="url(#clipPath38)"
           id="g34"><path
             id="path40"
             style="fill:#ffffff;fill-opacity:1;fill-rule:nonzero;stroke:none"
             d="M 5010.88,2641.18 H 5000 c 922.76,0 1670.97,123.87 1672.34,276.75 v 0 c -1.37,-152.29 -743.68,-275.78 -1661.46,-276.75 m -10.88,0 h -10.87 c -918.64,0.97 -1661.47,124.69 -1661.47,277.16 v 0 0 c 0,-153.07 748.73,-277.16 1672.34,-277.16" /></g></g><g
         id="g42"><g
           clip-path="url(#clipPath48)"
           id="g44"><path
             id="path56"
             style="fill:url(#radialGradient54);fill-opacity:1;fill-rule:nonzero;stroke:none"
             d="m 5000,2641.18 v 0 c -923.61,0 -1672.34,124.09 -1672.34,277.17 0,153.07 748.73,277.16 1672.34,277.16 v 0 c 922.76,0 1670.97,-123.87 1672.34,-276.75 v -0.83 C 6670.97,2765.05 5922.76,2641.18 5000,2641.18 v 0" /></g></g></g></g></svg>